<svg id="Calque_1" data-name="Calque 1" xmlns="http://www.w3.org/2000/svg" viewBox="0 0 95.8 95.8"><defs><style>.cls-1{fill:#fff;}</style></defs><title>contact</title><path class="cls-1" d="M97.9,50A47.9,47.9,0,1,0,50,97.9,48,48,0,0,0,97.9,50ZM7.1,50A42.9,42.9,0,1,1,81.4,79.2a143,143,0,0,0-15.3-9.1V64.8a27.53,27.53,0,0,0,1.6-4.6c1.9-.8,3.3-3,4.6-7.5q1.8-6.15-.3-8.7c1.4-7.9.8-13.7-2-17.3a8.8,8.8,0,0,0-4.2-3.1,15.74,15.74,0,0,0-5.1-4.5,19.22,19.22,0,0,0-11.4-2.5,19.5,19.5,0,0,0-4.7.9h-.1A20.64,20.64,0,0,0,39.6,20a24.25,24.25,0,0,0-4.9,4.1,20.72,20.72,0,0,0-5.5,9.7,17.51,17.51,0,0,0-.2,8.5,4.62,4.62,0,0,0-.7.7c-1.4,1.7-1.6,4.5-.4,8.7.8,2.8,1.8,5.6,3.6,7A25.92,25.92,0,0,0,34,65.8v4.3a143,143,0,0,0-15.3,9.1A42.34,42.34,0,0,1,7.1,50Z" transform="translate(-2.1 -2.1)"/></svg>