<svg id="Calque_1" data-name="Calque 1" xmlns="http://www.w3.org/2000/svg" viewBox="0 0 82.1 78.37"><defs><style>.cls-1{fill:#fff;}</style></defs><title>favori</title><path class="cls-1" d="M73.51,89.18a3.07,3.07,0,0,1-1.39-.34L50,77.21,27.88,88.84a3,3,0,0,1-4.35-3.17l4.22-24.62L9.86,43.61a3,3,0,0,1,1.67-5.12L36.25,34.9,47.31,12.49a3,3,0,0,1,5.38,0L63.75,34.9l24.72,3.59a3,3,0,0,1,1.67,5.12L72.25,61.05l4.22,24.62A3,3,0,0,1,74,89.14a3.31,3.31,0,0,1-.55,0ZM50,70.82a3,3,0,0,1,1.4.34L69.53,80.7,66.06,60.51a3,3,0,0,1,.87-2.66L81.6,43.55,61.32,40.61A3,3,0,0,1,59.07,39L50,20.6,40.93,39a3,3,0,0,1-2.25,1.64L18.4,43.55l14.67,14.3a3,3,0,0,1,.87,2.66L30.47,80.7,48.6,71.16A3,3,0,0,1,50,70.82Z" transform="translate(-8.95 -10.82)"/></svg>