<?xml version="1.0" encoding="utf-8"?>
<!-- Generator: Adobe Illustrator 23.0.3, SVG Export Plug-In . SVG Version: 6.00 Build 0)  -->
<svg version="1.1" id="Calque_1" xmlns="http://www.w3.org/2000/svg" xmlns:xlink="http://www.w3.org/1999/xlink" x="0px" y="0px"
	 viewBox="0 0 53.9 79.9" style="enable-background:new 0 0 53.9 79.9;" xml:space="preserve">
<style type="text/css">
	.st0{fill:#2E296A;}
</style>
<circle class="st0" cx="28.7" cy="8.7" r="7.2"/>
<path class="st0" d="M12.4,22c-1.4,0.6-3.1,1.2-4,2.6L2,35.7c-1.1,1.9-0.4,4.4,1.5,5.5c0.6,0.4,1.3,0.5,2,0.5c1.4,0,2.7-0.7,3.5-2
	l5.7-10l4.3-1.9l-3.1,13.9c0,0.1,0,0.2-0.1,0.4l-1.7,12.7L3.3,72.4c-1.2,1.9-0.6,4.3,1.3,5.5c0.7,0.4,1.4,0.6,2.1,0.6
	c1.3,0,2.7-0.7,3.4-1.9l11.3-18.4c0.3-0.5,0.5-1,0.6-1.6l1.3-9.6l11.1,8v19.5c0,2.2,1.8,4,4,4s4-1.8,4-4V53c0-1.3-0.6-2.5-1.6-3.2
	L28.7,41l2.6-10.8l2.9,3.6c0.5,0.6,1.1,1,1.7,1.2l11.4,4.2c2.1,0.8,4.4-0.3,5.1-2.4c0.8-2.1-0.3-4.4-2.4-5.1l-10.4-3.8
	c-1.6-2-3.3-4-4.9-6c-1.4-1.7-2.7-4.1-5.1-4.5c-0.9-0.1-4.4-0.4-5.3-0.3c-0.8,0.1-1.6,0.4-2.3,0.8L12.4,22z"/>
</svg>
