<svg id="Calque_1" data-name="Calque 1" xmlns="http://www.w3.org/2000/svg" viewBox="0 0 30.01 30"><defs><style>.cls-1{fill:#2e296a;}</style></defs><title>pen</title><path class="cls-1" d="M29.83,3.59,28.41,2.17a4,4,0,0,0-5.66,0h0L4.12,20.8h0a1.06,1.06,0,0,0-.17.26v.07H4l-2.9,8.55A1,1,0,0,0,1.68,31a1,1,0,0,0,.63,0l8.49-2.83h.06a.85.85,0,0,0,.25-.17h0L29.83,9.25a4,4,0,0,0,0-5.66ZM3.58,28.42l1.69-5.06,3.37,3.37ZM28.41,7.83,10.49,25.76,8.37,23.63,6.25,21.51,24.17,3.59a2,2,0,0,1,2.83,0h0L28.41,5a2,2,0,0,1,0,2.83Z" transform="translate(-1 -1)"/></svg>