<?xml version="1.0" encoding="utf-8"?>
<!-- Generator: Adobe Illustrator 23.0.3, SVG Export Plug-In . SVG Version: 6.00 Build 0)  -->
<svg version="1.1" id="Calque_1" xmlns="http://www.w3.org/2000/svg" xmlns:xlink="http://www.w3.org/1999/xlink" x="0px" y="0px"
	 viewBox="0 0 100 125" style="enable-background:new 0 0 100 125;" xml:space="preserve">
<style type="text/css">
	.st0{fill:#2E296A;}
</style>
<g>
	<path class="st0" d="M50,11.3c-16.5,0-30,13.5-30,30c0,12.9,18,37.4,25.7,47.4c1,1.3,2.6,2.1,4.3,2.1s3.2-0.8,4.2-2.1
		C62,78.7,80,54.2,80,41.3C80,24.8,66.5,11.3,50,11.3z M50,52.4c-6.9,0-12.4-5.6-12.4-12.4c0-6.9,5.6-12.4,12.4-12.4
		S62.4,33.2,62.4,40S56.9,52.4,50,52.4z"/>
</g>
</svg>
